#Comment line ignore any data following # character 
#Hierarchical Translation and Rotation (.htr) file 
[Header]	
#Header keywords are followed by a single value 
FileType HTR		#Single word string
DataType HTRS		#Translation followed by rotation and scale data
FileVersion 1		#integer
NumSegments 23		#integer
NumFrames 5		#integer
DataFrameRate 30		#integer, data frame rate in this file
EulerRotationOrder ZYX
CalibrationUnits mm
RotationUnits Degrees
GlobalAxisofGravity Y
BoneLengthAxis Y
ScaleFactor 1.00
[SegmentNames&Hierarchy]
#CHILD	PARENT
MASTER GLOBAL
weapon MASTER
arm_lock_bottom_part1 weapon
arm_lock_bottom_part2 weapon
arm_lock_bottom_part3 weapon
arm_lock_bottom_part4 weapon
arm_lock_top_part1 weapon
arm_lock_top_part2 weapon
arm_lock_top_part3 weapon
front_lower_left_part1 weapon
front_lower_right_part1 weapon
front_top_left_part weapon
front_top_right_part1 weapon
scope_part1 weapon
scope_part2 weapon
front_lower_left_part2 front_lower_left_part1
front_lower_left_part3 front_lower_left_part2
front_lower_right_part2 front_lower_right_part1
front_lower_right_part3 front_lower_right_part2
front_top_left_part2 front_top_left_part
front_top_left_part3 front_top_left_part2
front_top_right_part2 front_top_right_part1
front_top_right_part3 front_top_right_part2
[BasePosition]
#SegmentName Tx, Ty, Tz, Rx, Ry, Rz, BoneLength
MASTER 0.000000 0.000000 0.000000 -90.000000 0.000000 0.000000 10.000000 
weapon 0.000000 0.000000 0.000000 0.000000 0.000000 0.000000 10.000000 
arm_lock_bottom_part1 0.000000 0.000000 0.000000 0.000000 0.000000 0.000000 10.000000 
arm_lock_bottom_part2 0.000000 0.000000 0.000000 0.000000 0.000000 0.000000 10.000000 
arm_lock_bottom_part3 0.000000 0.000000 0.000000 0.000000 0.000000 0.000000 10.000000 
arm_lock_bottom_part4 0.000000 0.000000 0.000000 0.000000 0.000000 0.000000 10.000000 
arm_lock_top_part1 0.000000 0.000000 0.000000 0.000000 0.000000 0.000000 10.000000 
arm_lock_top_part2 0.000000 0.000000 0.000000 0.000000 0.000000 0.000000 10.000000 
arm_lock_top_part3 0.000000 0.000000 0.000000 0.000000 0.000000 0.000000 10.000000 
front_lower_left_part1 0.000000 0.000000 0.000000 0.000000 0.000000 0.000000 10.000000 
front_lower_right_part1 0.000000 0.000000 0.000000 0.000000 0.000000 0.000000 10.000000 
front_top_left_part 0.000000 0.000000 0.000000 0.000000 0.000000 0.000000 10.000000 
front_top_right_part1 0.000000 0.000000 0.000000 0.000000 0.000000 0.000000 10.000000 
scope_part1 0.000000 0.000000 0.000000 0.000000 0.000000 0.000000 10.000000 
scope_part2 0.000000 0.000000 0.000000 0.000000 0.000000 0.000000 10.000000 
front_lower_left_part2 0.000000 0.000000 0.000000 0.000000 0.000000 0.000000 10.000000 
front_lower_left_part3 0.000000 0.000000 0.000000 0.000000 0.000000 0.000000 10.000000 
front_lower_right_part2 0.000000 0.000000 0.000000 0.000000 0.000000 0.000000 10.000000 
front_lower_right_part3 0.000000 0.000000 0.000000 0.000000 0.000000 0.000000 10.000000 
front_top_left_part2 0.000000 0.000000 0.000000 0.000000 0.000000 0.000000 10.000000 
front_top_left_part3 0.000000 0.000000 0.000000 0.000000 0.000000 0.000000 10.000000 
front_top_right_part2 0.000000 0.000000 0.000000 0.000000 0.000000 0.000000 10.000000 
front_top_right_part3 0.000000 0.000000 0.000000 0.000000 0.000000 0.000000 10.000000 
#Beginning of Data. Separated by tabs
#Fr	Tx	Ty	Tz	Rx	Ry	Rz	SF
[MASTER]
78 0.000000 -0.000019 0.000002 0.002458 -0.000000 0.000000 0.000019
79 0.000000 -0.000019 0.000002 0.002458 -0.000000 0.000000 0.000019
80 0.000000 -0.000019 0.000002 0.002458 -0.000000 0.000000 0.000019
81 0.000000 -0.000019 0.000002 0.002458 -0.000000 0.000000 0.000019
82 0.000000 -0.000019 0.000002 0.002458 -0.000000 0.000000 0.000019
[weapon]
78 10.182495 -168.978043 -13.084183 -0.002473 -0.000000 -0.000020 169.789444
79 10.182457 -168.977966 -13.084412 -0.002473 -0.000000 -0.000020 169.789383
80 10.182438 -168.978058 -13.084106 -0.002473 -0.000000 -0.000020 169.789459
81 10.182476 -168.978043 -13.084106 -0.002473 -0.000000 -0.000020 169.789444
82 10.182438 -168.978058 -13.084259 -0.002473 -0.000000 -0.000020 169.789474
[arm_lock_bottom_part1]
78 -48.820034 98.566185 -83.498901 179.998215 -0.001518 9.389182 138.096909
79 -48.820034 98.566185 -83.498901 179.998215 -0.001518 9.389182 138.096909
80 -48.820034 98.566185 -83.498901 179.998215 -0.001518 9.389182 138.096909
81 -48.820034 98.566185 -83.498901 179.998215 -0.001518 9.389182 138.096909
82 -48.820034 98.566185 -83.498901 179.998215 -0.001518 9.389182 138.096909
[arm_lock_bottom_part2]
78 -49.022778 58.781982 -78.526520 179.998245 -0.001562 6.578084 109.658417
79 -49.022778 58.781982 -78.526520 179.998245 -0.001562 6.578084 109.658417
80 -49.022778 58.781982 -78.526520 179.998245 -0.001562 6.578084 109.658417
81 -49.022778 58.781982 -78.526520 179.998245 -0.001562 6.578084 109.658417
82 -49.022778 58.781982 -78.526520 179.998245 -0.001562 6.578084 109.658417
[arm_lock_bottom_part3]
78 -51.266434 -16.798199 -66.920387 179.998291 -0.001596 4.325218 85.957924
79 -51.266434 -16.798199 -66.920387 179.998291 -0.001596 4.325218 85.957924
80 -51.266434 -16.798199 -66.920387 179.998291 -0.001596 4.325218 85.957924
81 -51.266434 -16.798199 -66.920387 179.998291 -0.001596 4.325218 85.957924
82 -51.266434 -16.798199 -66.920387 179.998291 -0.001596 4.325218 85.957924
[arm_lock_bottom_part4]
78 -40.078083 -93.503029 -59.330029 -179.999222 -7.951346 1.320369 117.767235
79 -40.078083 -93.503029 -59.330029 -179.999222 -7.951346 1.320369 117.767235
80 -40.078083 -93.503029 -59.330029 -179.999222 -7.951346 1.320369 117.767235
81 -40.078083 -93.503029 -59.330029 -179.999222 -7.951346 1.320369 117.767235
82 -40.078083 -93.503029 -59.330029 -179.999222 -7.951346 1.320369 117.767235
[arm_lock_top_part1]
78 -47.532562 61.554470 78.379471 0.001509 0.001798 -10.001317 110.415756
79 -47.532562 61.554470 78.379471 0.001509 0.001798 -10.001317 110.415756
80 -47.532562 61.554470 78.379471 0.001509 0.001798 -10.001317 110.415756
81 -47.532562 61.554470 78.379471 0.001509 0.001798 -10.001317 110.415756
82 -47.532562 61.554470 78.379471 0.001509 0.001798 -10.001317 110.415756
[arm_lock_top_part2]
78 -45.622692 13.709888 63.393517 0.001544 0.001768 -7.724405 79.297722
79 -45.622692 13.709888 63.393517 0.001544 0.001768 -7.724405 79.297722
80 -45.622692 13.709888 63.393517 0.001544 0.001768 -7.724405 79.297722
81 -45.622692 13.709888 63.393517 0.001544 0.001768 -7.724405 79.297722
82 -45.622692 13.709888 63.393517 0.001544 0.001768 -7.724405 79.297722
[arm_lock_top_part3]
78 -43.788521 -73.747162 72.061607 0.001593 0.001724 -4.534721 112.022110
79 -43.788521 -73.747162 72.061607 0.001593 0.001724 -4.534721 112.022110
80 -43.788521 -73.747162 72.061607 0.001593 0.001724 -4.534721 112.022110
81 -43.788521 -73.747162 72.061607 0.001593 0.001724 -4.534721 112.022110
82 -43.788521 -73.747162 72.061607 0.001593 0.001724 -4.534721 112.022110
[front_lower_left_part1]
78 -46.798580 475.070923 -43.538815 0.000000 0.000003 -0.000000 479.351746
79 -46.798580 475.070923 -43.538815 0.000000 0.000003 -0.000000 479.351746
80 -46.798580 475.070923 -43.538815 0.000000 0.000003 -0.000000 479.351746
81 -46.798580 475.070923 -43.538815 0.000000 0.000003 -0.000000 479.351746
82 -46.798580 475.070923 -43.538815 0.000000 0.000003 -0.000000 479.351746
[front_lower_right_part1]
78 26.433397 475.070923 -43.538826 0.000000 -0.000000 -0.000000 477.793640
79 26.433397 475.070923 -43.538826 0.000000 -0.000000 -0.000000 477.793640
80 26.433397 475.070923 -43.538826 0.000000 -0.000000 -0.000000 477.793640
81 26.433397 475.070923 -43.538826 0.000000 -0.000000 -0.000000 477.793640
82 26.433397 475.070923 -43.538826 0.000000 -0.000000 -0.000000 477.793640
[front_top_left_part]
78 -47.897255 494.788696 7.031011 -0.000000 0.000003 -0.000001 497.151367
79 -47.897255 494.788696 7.031011 -0.000000 0.000003 -0.000001 497.151367
80 -47.897255 494.788696 7.031011 -0.000000 0.000003 -0.000001 497.151367
81 -47.897255 494.788696 7.031011 -0.000000 0.000003 -0.000001 497.151367
82 -47.897255 494.788696 7.031011 -0.000000 0.000003 -0.000001 497.151367
[front_top_right_part1]
78 27.532097 494.788727 7.031008 0.000000 -0.000000 -0.000000 495.604004
79 27.532097 494.788727 7.031008 0.000000 -0.000000 -0.000000 495.604004
80 27.532097 494.788727 7.031008 0.000000 -0.000000 -0.000000 495.604004
81 27.532097 494.788727 7.031008 0.000000 -0.000000 -0.000000 495.604004
82 27.532097 494.788727 7.031008 0.000000 -0.000000 -0.000000 495.604004
[scope_part1]
78 -10.754304 87.338959 156.453140 -169.876175 60.897877 -171.129929 179.503021
79 -10.754304 87.338959 156.453140 -170.127243 60.095215 -171.423126 179.503021
80 -10.754304 87.338959 156.453140 -170.311630 59.452141 -171.634842 179.503021
81 -10.754304 87.338959 156.453140 -170.445282 58.991238 -171.791748 179.503021
82 -10.754304 87.338959 156.453140 -170.525803 58.704868 -171.884109 179.503021
[scope_part2]
78 -10.754300 82.597374 156.860001 -174.403503 28.783722 -177.296844 177.603607
79 -10.754300 82.597374 156.860001 -174.453857 27.828239 -177.402512 177.603607
80 -10.754300 82.597374 156.860001 -174.490082 27.077513 -177.487396 177.603607
81 -10.754300 82.597374 156.860001 -174.516449 26.530180 -177.543167 177.603607
82 -10.754300 82.597374 156.860001 -174.530746 26.196098 -177.579422 177.603607
[front_lower_left_part2]
78 -55.193569 141.618454 32.268322 0.001708 0.001610 3.355293 155.381348
79 -55.193569 141.618454 32.268322 0.001673 0.001646 0.936395 155.381348
80 -55.193569 141.618454 32.268322 0.001660 0.001660 0.001660 155.381348
81 -55.193569 141.618454 32.268322 0.001660 0.001660 0.001660 155.381348
82 -55.193569 141.618454 32.268322 0.001660 0.001660 0.001660 155.381348
[front_lower_left_part3]
78 -10.943815 108.509422 -11.124855 33.369652 -15.986882 -13.525992 109.625839
79 -10.943815 108.509422 -11.124855 33.354973 -16.011906 -13.479057 109.625839
80 -10.943815 108.509422 -11.124855 33.351616 -16.017443 -13.469765 109.625839
81 -10.943815 108.509422 -11.124855 33.348259 -16.022978 -13.460472 109.625839
82 -10.943815 108.509422 -11.124855 33.348267 -16.022980 -13.460473 109.625839
[front_lower_right_part2]
78 55.193596 141.618317 32.268330 0.001625 0.001693 -2.342748 155.381226
79 55.193596 141.618317 32.268330 0.001650 0.001669 -0.656113 155.381226
80 55.193596 141.618317 32.268330 0.001660 0.001660 0.001660 155.381226
81 55.193596 141.618317 32.268330 0.001660 0.001660 0.001660 155.381226
82 55.193596 141.618317 32.268330 0.001660 0.001660 0.001660 155.381226
[front_lower_right_part3]
78 10.943837 108.509453 -11.124846 33.284538 16.169910 13.232565 109.625862
79 10.943837 108.509453 -11.124846 33.334263 16.065392 13.401724 109.625862
80 10.943837 108.509453 -11.124846 33.349384 16.025185 13.464869 109.625862
81 10.943837 108.509453 -11.124846 33.349384 16.025185 13.464869 109.625862
82 10.943837 108.509453 -11.124846 33.349384 16.025185 13.464869 109.625862
[front_top_left_part2]
78 -51.734322 135.791412 55.217892 10.335582 -0.000007 4.831533 155.450195
79 -45.277000 136.986694 54.951172 10.050730 -0.000009 1.427503 154.385849
80 -42.569080 137.487946 54.839478 9.931351 0.000002 -0.000020 154.020874
81 -42.569084 137.487946 54.839470 10.287812 0.000002 -0.000020 154.020874
82 -42.569084 137.487961 54.839458 11.072166 0.000002 -0.000020 154.020874
[front_top_left_part3]
78 -28.216480 149.656799 49.959614 -25.869436 -3.749929 -66.212143 160.278793
79 -28.216480 149.656799 49.959614 -25.851974 -3.855264 -66.437996 160.278793
80 -28.216480 149.656799 49.959614 -25.846500 -3.899320 -66.531914 160.278793
81 -28.216480 149.656799 49.959614 -25.784796 -3.899068 -66.524750 160.278793
82 -28.216480 149.656799 49.959614 -25.617594 -3.901491 -66.517036 160.278793
[front_top_right_part2]
78 49.607983 132.861588 56.185371 12.989636 -0.372854 -5.986734 152.544907
79 44.648804 136.121231 55.237118 12.577321 -0.112100 -1.767139 153.537109
80 42.569080 137.488022 54.839325 12.404925 0.001471 0.001829 154.020874
81 42.569080 137.488022 54.839317 12.758195 0.001465 0.001834 154.020874
82 42.569080 137.488037 54.839306 13.544799 0.001452 0.001844 154.020889
[front_top_right_part3]
78 28.216452 149.656952 49.959507 -25.548769 5.615346 70.103104 160.278885
79 28.216452 149.656952 49.959507 -25.769119 4.407820 67.585785 160.278885
80 28.216452 149.656952 49.959507 -25.844738 3.901540 66.529228 160.278885
81 28.216452 149.656952 49.959507 -25.844738 3.901540 66.529228 160.278885
82 28.216452 149.656952 49.959507 -25.844738 3.901540 66.529228 160.278885
